<?xml version="1.0" encoding="UTF-8" standalone="no"?><!DOCTYPE svg PUBLIC "-//W3C//DTD SVG 1.1//EN" "http://www.w3.org/Graphics/SVG/1.1/DTD/svg11.dtd"><svg width="100%" height="100%" viewBox="0 0 2610 758" version="1.1" xmlns="http://www.w3.org/2000/svg" xmlns:xlink="http://www.w3.org/1999/xlink" xml:space="preserve" xmlns:serif="http://www.serif.com/" style="fill-rule:evenodd;clip-rule:evenodd;stroke-linejoin:round;stroke-miterlimit:2;"><g id="Page-1"><g><g id="gravity-logo-rectangle-inverse"><g id="Group"><g id="orbiter"><path id="Combined-Shape" d="M472.035,70.69c-3.02,8.857 -5.128,18.104 -6.216,27.642c-27.902,-7.85 -57.339,-12.049 -87.759,-12.049c-165.569,-0 -302.004,124.401 -320.458,284.596c-4.131,-0.79 -8.396,-1.204 -12.759,-1.204c-5.457,-0 -10.762,0.647 -15.843,1.869c18.281,-176.168 167.584,-313.544 349.06,-313.544c32.55,-0 64.065,4.42 93.975,12.69l0,0Zm210.658,163.423c29.462,51.228 46.307,110.595 46.307,173.887c0,56.385 -13.369,109.656 -37.119,156.832c-6.951,-6.543 -14.886,-12.06 -23.559,-16.306c20.705,-42.458 32.319,-90.139 32.319,-140.526c0,-59.412 -16.148,-115.063 -44.305,-162.825c9.225,-2.87 18.045,-6.59 26.357,-11.062l-0,-0Zm-642.243,269.765c1.452,0.093 2.917,0.14 4.393,0.14c8.423,0 16.484,-1.541 23.916,-4.358c39.574,133.025 163.075,230.057 309.301,230.057c60.825,0 117.718,-16.789 166.274,-45.975c5,8.21 11.207,15.609 18.375,21.951c-53.638,33.162 -116.902,52.307 -184.649,52.307c-160.485,-0 -295.809,-107.434 -337.61,-254.122l-0,-0Z" style="fill:#fff;"/><circle id="Oval" cx="604.5" cy="116.5" r="116.5" style="fill:#fff;"/><circle id="Oval1" serif:id="Oval" cx="379.5" cy="408.5" r="188.5" style="fill:#fff;"/><circle id="Oval2" serif:id="Oval" cx="621" cy="628" r="72" style="fill:#fff;"/><circle id="Oval3" serif:id="Oval" cx="44.5" cy="436.5" r="44.5" style="fill:#fff;"/></g></g></g><g><path d="M1174.32,526.815l1.36,-170.34l-1.02,0l-62.56,170.34l-40.8,0l-60.86,-170.34l-1.02,0l1.36,170.34l-54.74,0l0,-240.72l82.62,0l54.74,154.36l1.36,0l52.36,-154.36l83.98,0l0,240.72l-56.78,0Z" style="fill:#fff;fill-rule:nonzero;"/><path d="M1280.74,526.815l0,-240.72l161.84,0l0,49.3l-105.74,0l0,45.22l99.96,0l0,46.58l-99.96,0l0,49.98l111.86,0l0,49.64l-167.96,0Z" style="fill:#fff;fill-rule:nonzero;"/><path d="M1614.28,348.655c-4.986,-6.347 -11.503,-11.39 -19.55,-15.13c-8.046,-3.74 -15.81,-5.61 -23.29,-5.61c-3.853,0 -7.763,0.34 -11.73,1.02c-3.966,0.68 -7.536,1.983 -10.71,3.91c-3.173,1.927 -5.836,4.42 -7.99,7.48c-2.153,3.06 -3.23,6.97 -3.23,11.73c0,4.08 0.85,7.48 2.55,10.2c1.7,2.72 4.194,5.1 7.48,7.14c3.287,2.04 7.197,3.91 11.73,5.61c4.534,1.7 9.634,3.457 15.3,5.27c8.16,2.72 16.66,5.723 25.5,9.01c8.84,3.287 16.887,7.65 24.14,13.09c7.254,5.44 13.26,12.183 18.02,20.23c4.76,8.047 7.14,18.077 7.14,30.09c0,13.827 -2.55,25.783 -7.65,35.87c-5.1,10.087 -11.956,18.417 -20.57,24.99c-8.613,6.573 -18.473,11.447 -29.58,14.62c-11.106,3.173 -22.553,4.76 -34.34,4.76c-17.226,0 -33.886,-3.003 -49.98,-9.01c-16.093,-6.007 -29.466,-14.563 -40.12,-25.67l38.08,-38.76c5.894,7.253 13.657,13.317 23.29,18.19c9.634,4.873 19.21,7.31 28.73,7.31c4.307,0 8.5,-0.453 12.58,-1.36c4.08,-0.907 7.65,-2.38 10.71,-4.42c3.06,-2.04 5.497,-4.76 7.31,-8.16c1.814,-3.4 2.72,-7.48 2.72,-12.24c0,-4.533 -1.133,-8.387 -3.4,-11.56c-2.266,-3.173 -5.496,-6.063 -9.69,-8.67c-4.193,-2.607 -9.406,-4.987 -15.64,-7.14c-6.233,-2.153 -13.316,-4.477 -21.25,-6.97c-7.706,-2.493 -15.243,-5.44 -22.61,-8.84c-7.366,-3.4 -13.94,-7.763 -19.72,-13.09c-5.78,-5.327 -10.426,-11.787 -13.94,-19.38c-3.513,-7.593 -5.27,-16.83 -5.27,-27.71c0,-13.373 2.72,-24.82 8.16,-34.34c5.44,-9.52 12.58,-17.34 21.42,-23.46c8.84,-6.12 18.814,-10.597 29.92,-13.43c11.107,-2.833 22.327,-4.25 33.66,-4.25c13.6,0 27.484,2.493 41.65,7.48c14.167,4.987 26.577,12.353 37.23,22.1l-37.06,39.1Z" style="fill:#fff;fill-rule:nonzero;"/><path d="M1892.06,436.035c0,14.507 -2.436,27.71 -7.31,39.61c-4.873,11.9 -11.843,22.1 -20.91,30.6c-9.066,8.5 -20.003,15.13 -32.81,19.89c-12.806,4.76 -27.03,7.14 -42.67,7.14c-15.866,0 -30.146,-2.38 -42.84,-7.14c-12.693,-4.76 -23.46,-11.39 -32.3,-19.89c-8.84,-8.5 -15.64,-18.7 -20.4,-30.6c-4.76,-11.9 -7.14,-25.103 -7.14,-39.61l0,-149.94l57.8,0l0,145.18c0,6.573 0.85,12.807 2.55,18.7c1.7,5.893 4.307,11.163 7.82,15.81c3.514,4.647 8.16,8.33 13.94,11.05c5.78,2.72 12.75,4.08 20.91,4.08c8.16,0 15.13,-1.36 20.91,-4.08c5.78,-2.72 10.484,-6.403 14.11,-11.05c3.627,-4.647 6.234,-9.917 7.82,-15.81c1.587,-5.893 2.38,-12.127 2.38,-18.7l0,-145.18l58.14,0l0,149.94Z" style="fill:#fff;fill-rule:nonzero;"/><path d="M1938.98,526.815l0,-240.72l58.48,0l0,190.06l93.16,0l0,50.66l-151.64,0Z" style="fill:#fff;fill-rule:nonzero;"/><path d="M2358.54,405.435c0,19.04 -3.286,36.437 -9.86,52.19c-6.573,15.753 -15.696,29.24 -27.37,40.46c-11.673,11.22 -25.556,19.89 -41.65,26.01c-16.093,6.12 -33.546,9.18 -52.36,9.18c-18.813,0 -36.21,-3.06 -52.19,-9.18c-15.98,-6.12 -29.806,-14.79 -41.48,-26.01c-11.673,-11.22 -20.796,-24.707 -27.37,-40.46c-6.573,-15.753 -9.86,-33.15 -9.86,-52.19c0,-19.267 3.287,-36.663 9.86,-52.19c6.574,-15.527 15.697,-28.73 27.37,-39.61c11.674,-10.88 25.5,-19.267 41.48,-25.16c15.98,-5.893 33.377,-8.84 52.19,-8.84c18.814,0 36.267,2.947 52.36,8.84c16.094,5.893 29.977,14.28 41.65,25.16c11.674,10.88 20.797,24.083 27.37,39.61c6.574,15.527 9.86,32.923 9.86,52.19Zm-62.22,0c0,-10.427 -1.7,-20.173 -5.1,-29.24c-3.4,-9.067 -8.103,-16.83 -14.11,-23.29c-6.006,-6.46 -13.26,-11.56 -21.76,-15.3c-8.5,-3.74 -17.85,-5.61 -28.05,-5.61c-10.2,0 -19.493,1.87 -27.88,5.61c-8.386,3.74 -15.64,8.84 -21.76,15.3c-6.12,6.46 -10.823,14.223 -14.11,23.29c-3.286,9.067 -4.93,18.813 -4.93,29.24c0,10.88 1.7,20.91 5.1,30.09c3.4,9.18 8.104,17.057 14.11,23.63c6.007,6.573 13.204,11.73 21.59,15.47c8.387,3.74 17.68,5.61 27.88,5.61c10.2,0 19.494,-1.87 27.88,-5.61c8.387,-3.74 15.64,-8.897 21.76,-15.47c6.12,-6.573 10.88,-14.45 14.28,-23.63c3.4,-9.18 5.1,-19.21 5.1,-30.09Z" style="fill:#fff;fill-rule:nonzero;"/></g></g></g></svg>